<svg xmlns="http://www.w3.org/2000/svg" data-name="Layer 1" viewBox="0 0 125 125" id="reward"><path fill="#e56353" d="M97.39762,46.7367V33.4727a2.68772,2.68772,0,0,0-2.905-2.67052c-17.2721,1.299-27.03917-3.74936-30.52022-6.051a2.66252,2.66252,0,0,0-2.94558,0c-3.48105,2.30168-13.24812,7.35-30.52023,6.051a2.68772,2.68772,0,0,0-2.905,2.67052v13.264S26.31232,83.91055,61.88118,92.17809a2.75348,2.75348,0,0,0,1.23681,0C98.68685,83.91055,97.39762,46.7367,97.39762,46.7367Z"></path><path fill="#fff" d="M62.49935,85.66764C33.86314,78.72419,34.4042,49.20815,34.44188,47.94189l.00214-10.466q1.73835.08426,3.42622.08461c12.61068-.00036,20.6661-3.546,24.62911-5.904,3.96159,2.35832,12.017,5.90434,24.62982,5.904q1.68611,0,3.42622-.08461V47.87719l.00285.07572C90.59521,49.2085,91.13555,78.72419,62.49935,85.66764Z"></path><path fill="#f7be56" d="M67.30677 52.39262l-.9346-.74292a5.32772 5.32772 0 0 1 2.56408-1.62727c.39536-.13408.797-.245 1.18538-.35222.4996-.138.97144-.26839 1.42766-.44281a7.35165 7.35165 0 0 0 3.4764-2.76473 6.99166 6.99166 0 0 0 1.158-4.19787 3.45008 3.45008 0 0 0-.88831-2.331 2.74653 2.74653 0 0 0-2.88948-.37916 3.828 3.828 0 0 0-2.0105 2.39257l-1.141-.35164a5.03449 5.03449 0 0 1 2.66877-3.13292 3.93047 3.93047 0 0 1 4.19017.60137 4.512 4.512 0 0 1 1.26257 3.13957 8.19221 8.19221 0 0 1-1.356 4.9198 8.55449 8.55449 0 0 1-4.0442 3.21909c-.50962.19494-1.0316.339-1.53632.47849-.3893.10749-.75691.20916-1.12009.33217A4.20258 4.20258 0 0 0 67.30677 52.39262zM58.74431 52.39262a4.20379 4.20379 0 0 0-2.0126-1.23948c-.36318-.123-.73079-.22456-1.12009-.33217-.50472-.13945-1.0267-.28355-1.53644-.47849a8.55476 8.55476 0 0 1-4.0442-3.21909 8.19373 8.19373 0 0 1-1.35595-4.9198A4.51277 4.51277 0 0 1 49.93759 39.064a3.92942 3.92942 0 0 1 4.19029-.60137 5.03506 5.03506 0 0 1 2.66877 3.13292l-1.141.35164a3.82817 3.82817 0 0 0-2.01061-2.39257 2.74649 2.74649 0 0 0-2.88948.37916 3.45057 3.45057 0 0 0-.88831 2.331 6.99185 6.99185 0 0 0 1.1581 4.19787 7.35168 7.35168 0 0 0 3.47628 2.76473c.45622.17442.92819.30477 1.42778.44281.38836.10727.7899.21814 1.18538.35222a5.32827 5.32827 0 0 1 2.56408 1.62727z"></path><path fill="#fcd462" d="M63.08274,37.37886H54.8614c.23385,9.63125,1.64551,17.33241,8.22134,17.71147,6.57584-.37906,7.98749-8.08022,8.22135-17.71147Z"></path><polygon fill="#f7be56" points="62.107 63.072 64.059 63.072 64.059 58.404 65.386 54.573 60.78 54.573 62.107 58.404 62.107 63.072"></polygon><rect width="10.841" height="7.014" x="57.605" y="63.072" fill="#4d5c7d" rx=".899" ry=".899"></rect><path fill="#474c5b" d="M69.8155,68.68241h-13.58a.687.687,0,0,0-.687.687v1.85731h14.954V69.36944A.687.687,0,0,0,69.8155,68.68241Z"></path><path fill="#2d93ba" d="M93.71341 100.6933A43.94515 43.94515 0 0 0 75.267 89.64185q1.797-5.94875 3.59392-11.89749A56.31818 56.31818 0 0 1 102.5 91.90678a46.76629 46.76629 0 0 0-9.10666.228A48.36628 48.36628 0 0 1 93.71341 100.6933zM31.28659 100.6933A43.94833 43.94833 0 0 1 49.733 89.64185Q47.936 83.6931 46.139 77.74437A56.318 56.318 0 0 0 22.5 91.90678a46.76577 46.76577 0 0 1 9.10657.228A48.35775 48.35775 0 0 0 31.28659 100.6933z"></path><path fill="#00abee" d="M84.44959,88.12694a49.07894,49.07894,0,0,0-44.88879.51065Q36.65,83.14683,33.73886,77.65606a61.5352,61.5352,0,0,1,56.28148-.64024Q87.23475,82.57139,84.44959,88.12694Z"></path><polygon fill="#fff" points="66.062 75.24 63.601 74.882 62.5 72.652 61.399 74.882 58.938 75.24 60.719 76.976 60.298 79.427 62.5 78.27 64.702 79.427 64.281 76.976 66.062 75.24"></polygon><polygon fill="#fff" points="77.183 76.945 74.721 76.587 73.621 74.357 72.52 76.587 70.059 76.945 71.84 78.681 71.419 81.132 73.621 79.975 75.822 81.132 75.402 78.681 77.183 76.945"></polygon><polygon fill="#fff" points="53.816 76.945 51.355 76.587 50.254 74.357 49.153 76.587 46.692 76.945 48.473 78.681 48.052 81.132 50.254 79.975 52.456 81.132 52.035 78.681 53.816 76.945"></polygon></svg>